<svg xmlns="http://www.w3.org/2000/svg" width="22" height="22" viewBox="0 0 22 22">
  <g fill="none" fill-rule="evenodd" transform="translate(-1 -1)">
    <rect width="24" height="24"/>
    <g stroke="#4BB742" transform="translate(2 2)">
      <path d="M6.51752022.5C8.0916234.5 9.46020442 1.05110414 10.6243432 2.15056857 11.6944926 3.16126521 12.3095107 4.38134263 12.4690685 5.81095972 11.2199752 6.21962621 10.1898265 6.68761709 9.23859652 7.37338755 8.16931505 8.14426489 7.33676073 9.10200685 6.73999599 10.2458059 6.4045195 10.9652489 6.27231473 11.3029334 6.15177055 11.6404571 6.07143492 11.8653969 6.00612419 12.0953498 5.95574313 12.3302935 4.37651593 12.3020145 3.15852464 11.6915908 2.15056857 10.6243432 1.05110414 9.46020442.5 8.0916234.5 6.51752022.5 4.85751682 1.08144086 3.44507293 2.24573668 2.28077711 3.43234322 1.09417057 4.85603298.5 6.51752022.5zM14 7.5C14.8944135 7.5 15.7282001 7.66133103 16.495043 7.98416958 17.2905343 8.33092222 17.9844472 8.79953524 18.5760241 9.39111208 19.1676009 9.98268891 19.6362139 10.6766018 19.9829666 11.4720932 20.3281426 12.2639676 20.5 13.1067065 20.5 14 20.5 14.8907806 20.329142 15.7211827 19.9829666 16.495043 19.6362139 17.2905343 19.1676009 17.9844472 18.5760241 18.5760241 17.9837881 19.16826 17.2995211 19.6377455 16.5279068 19.9829666 15.7360324 20.3281426 14.8932935 20.5 14 20.5 13.1067065 20.5 12.2639676 20.3281426 11.4720932 19.9829666 10.6766018 19.6362139 9.98268891 19.1676009 9.39111208 18.5760241 8.80178781 17.9866998 8.34464237 17.3058767 8.01703343 16.5279068 7.6718574 15.7360324 7.5 14.8932935 7.5 14 7.5 13.1035589 7.66210873 12.2578131 7.98804768 11.4632122 8.33441335 10.6714362 8.80173777 9.98048639 9.39111208 9.39111208 9.97985664 8.80236751 10.6703881 8.34606587 11.4620786 8.02126976 12.2639676 7.6718574 13.1067065 7.5 14 7.5z"/>
      <g stroke-linecap="round" transform="rotate(-180 10 2.5)">
        <path d="M5,5 C3.1118364,4.48345119 1.89588586,3.04804003 1.35214838,0.693766532"/>
        <polyline stroke-linejoin="round" points="0 2.001 1.174 0 3.196 .902"/>
      </g>
      <g stroke-linecap="round" transform="translate(0 15)">
        <path d="M5,5 C3.1118364,4.48345119 1.89588586,3.04804003 1.35214838,0.693766532"/>
        <polyline stroke-linejoin="round" points="0 2.001 1.174 0 3.196 .902"/>
      </g>
      <g stroke-linecap="round" stroke-width=".7" transform="translate(11.75 10)">
        <line x1="2.25" x2="2.25" y2="8"/>
        <path d="M0.25,6 C-0.416666667,6.66666667 0.25,7 2.25,7 C5.25,7 5.25,4 2.25,4 C-0.75,4 -0.75,1 2.25,1 C4.25,1 4.91666667,1.33333333 4.25,2"/>
      </g>
      <g stroke-linecap="round" stroke-width=".7" transform="translate(3 3)">
        <path d="M6,2 C6,0.8954305 5.1045695,-2.02906125e-16 4,0 L3,0 C1.8954305,2.02906125e-16 1,0.8954305 1,2 L1,5 C1,6.1045695 1.8954305,7 3,7 L3.66424348,7 L3.66424348,7"/>
        <line x1="4" y1="5" y2="5"/>
        <line x1="4" x2=".005" y1="3" y2="3"/>
      </g>
    </g>
  </g>
</svg>
