<svg xmlns="http://www.w3.org/2000/svg" width="18" height="23" viewBox="0 0 18 23">
  <g fill="none" fill-rule="evenodd" transform="translate(-3)">
    <rect width="24" height="24"/>
    <path stroke="#4BB742" d="M18.1578947,9.5 C18.8094611,9.5 19.4008214,9.74130554 19.8283207,10.1361486 C20.2408647,10.5171789 20.5,11.042437 20.5,11.625 L20.5,11.625 L20.5,16 C20.5,17.7906859 19.7106756,19.409694 18.4409317,20.5824436 C17.1562326,21.7690059 15.3806618,22.5 13.4210526,22.5 L13.4210526,22.5 L10.5789474,22.5 C8.6193382,22.5 6.84376736,21.7690059 5.55906827,20.5824436 C4.28932437,19.409694 3.5,17.7906859 3.5,16 L3.5,16 L3.5,11.625 C3.5,11.042437 3.75913526,10.5171789 4.17167934,10.1361486 C4.59917861,9.74130554 5.19053893,9.5 5.84210526,9.5 L5.84210526,9.5 Z"/>
    <circle cx="12" cy="15" r="1" stroke="#4BB742"/>
    <line x1="12" x2="12" y1="15" y2="17" stroke="#4BB742" stroke-linecap="round" stroke-width="2"/>
    <path stroke="#4BB742" stroke-linecap="round" d="M6,8 L6,6 C6,3.23857625 8.23857625,1 11,1 L13,1 C15.7614237,1 18,3.23857625 18,6 L18,8 L18,8"/>
  </g>
</svg>
