<?xml version="1.0" encoding="UTF-8"?>
<svg width="33px" height="23px" viewBox="0 0 33 23" version="1.1" xmlns="http://www.w3.org/2000/svg" xmlns:xlink="http://www.w3.org/1999/xlink">
    <title>Solicitudes</title>
    <g id="Diseño-CA-Simplificada-para-clientes" stroke="none" stroke-width="1" fill="none" fill-rule="evenodd">
        <path d="M30.1377298,17.35 C30.8005629,17.35 31.355501,17.8475121 31.4331544,18.5211841 L31.4331544,18.5211841 L31.4401429,18.6524131 L31.4401429,19.0992847 C31.4401429,19.1747098 31.4944222,19.2390768 31.5360585,19.2480788 L31.5360585,19.2480788 L31.7490618,19.2685978 C32.0989254,19.3320999 32.3739524,19.6071269 32.4416836,19.9882504 L32.4416836,19.9882504 L32.451226,20.1103678 L32.451226,21.6944834 C32.451226,21.8877831 32.2945257,22.0444834 32.101226,22.0444834 L32.101226,22.0444834 L0.5,22.0444834 C0.306700338,22.0444834 0.15,21.8877831 0.15,21.6944834 L0.15,21.6944834 L0.15,20.1103678 C0.15,19.695093 0.44775533,19.3420002 0.883423939,19.2643687 L0.883423939,19.2643687 L1.00554155,19.2548262 C1.09144481,19.2548262 1.16108311,19.1851879 1.16108311,19.0992847 L1.16108311,19.0992847 L1.16108311,18.6524131 C1.16108311,17.9331102 1.74419334,17.35 2.46349623,17.35 L2.46349623,17.35 Z M30.1377298,18.05 L2.46349623,18.05 C2.13079266,18.05 1.86108311,18.3197096 1.86108311,18.6524131 L1.86108311,18.6524131 L1.86108311,19.0992847 C1.86108311,19.5717873 1.4780441,19.9548262 1.03678743,19.9534287 L1.03678743,19.9534287 L0.977175447,19.9573446 C0.904279335,19.9705756 0.85,20.0349427 0.85,20.1103678 L0.85,20.1103678 L0.85,21.344 L31.751,21.344 L31.7526235,20.1416135 L31.7487076,20.0820017 C31.7373007,20.0191552 31.6868971,19.9687516 31.6553104,19.9615737 L31.6553104,19.9615737 L31.4423071,19.9410547 C31.0378983,19.8676523 30.7401429,19.5145595 30.7401429,19.0992847 L30.7401429,19.0992847 L30.7407238,18.6725707 L30.7360725,18.5817221 C30.7010595,18.2802711 30.4442089,18.05 30.1377298,18.05 L30.1377298,18.05 Z M18.3,0.05 C18.4932997,0.05 18.65,0.206700338 18.65,0.4 C18.65,0.569137205 18.5300263,0.710253051 18.3705372,0.742889244 L18.3,0.75 L16.649,0.75 L16.649,2.315 L19.6903862,2.31535352 C25.1137815,2.31535352 29.5635375,6.56190998 29.8565741,11.9377438 L29.866,12.168 L29.8900852,12.1734975 C30.3670592,12.2699917 30.7564334,12.6198756 30.9071781,13.0914847 L30.9422604,13.2230244 L30.964829,13.3600065 L30.9721377,13.4967852 L30.9721377,14.1050544 C30.9721377,14.2983541 30.8154374,14.4550544 30.6221377,14.4550544 L30.6221377,14.4550544 L2,14.4550544 C1.80670034,14.4550544 1.65,14.2983541 1.65,14.1050544 L1.65,14.1050544 L1.65,13.4967852 C1.65,12.8389166 2.12056578,12.2909545 2.74346857,12.1711277 L2.74346857,12.1711277 L2.756,12.169 L2.76538507,11.9381585 C3.0503948,6.66737831 7.34424193,2.46256282 12.6515025,2.319136 L12.6515025,2.319136 L12.9317516,2.31535352 L15.949,2.315 L15.949,0.75 L14.3,0.75 C14.1067003,0.75 13.95,0.593299662 13.95,0.4 C13.95,0.230862795 14.0699737,0.0897469488 14.2294628,0.057110756 L14.3,0.05 L18.3,0.05 Z M19.6903862,3.01535352 L12.9317516,3.01535352 C7.69530144,3.01535352 3.45031986,7.26033508 3.45031986,12.4967852 C3.45031986,12.6900849 3.29361952,12.8467852 3.10031986,12.8467852 L3.10031986,12.8467852 L3,12.8467852 C2.64101493,12.8467852 2.35,13.1378001 2.35,13.4967852 L2.35,13.4967852 L2.35,13.755 L30.272,13.755 L30.2727186,13.5169428 L30.2677472,13.4205446 C30.2299633,13.095238 29.9528325,12.8467852 29.6221377,12.8467852 L29.6221377,12.8467852 L29.5218179,12.8467852 C29.3303915,12.8467852 29.174478,12.692997 29.1718509,12.5015886 L29.1718509,12.5015886 L29.168173,12.231214 C29.0273603,7.10755264 24.8279285,3.01535352 19.6903862,3.01535352 L19.6903862,3.01535352 Z" id="Solicitudes" fill="#000000" fill-rule="nonzero"></path>
    </g>
</svg>