<svg width="24" height="24" viewBox="0 0 24 24" fill="none" xmlns="http://www.w3.org/2000/svg">
<path fill-rule="evenodd" clip-rule="evenodd" d="M7.41667 7.83333C8.88603 7.83333 10.1016 6.74679 10.3038 5.33333H21.5833C21.8135 5.33333 22 5.14679 22 4.91667C22 4.68655 21.8135 4.5 21.5833 4.5H10.3038C10.1016 3.08654 8.88603 2 7.41667 2C5.9473 2 4.73172 3.08654 4.52954 4.5H2.41667C2.18655 4.5 2 4.68655 2 4.91667C2 5.14679 2.18655 5.33333 2.41667 5.33333H4.52954C4.73172 6.74679 5.9473 7.83333 7.41667 7.83333ZM7.41667 7C8.56726 7 9.5 6.06726 9.5 4.91666V4.91566C9.49946 3.76553 8.56693 2.83333 7.41667 2.83333C6.26607 2.83333 5.33333 3.76607 5.33333 4.91666C5.33333 6.06726 6.26607 7 7.41667 7ZM17.4167 15.3333C18.886 15.3333 20.1016 14.2468 20.3038 12.8333H21.5833C21.8135 12.8333 22 12.6468 22 12.4167C22 12.1865 21.8135 12 21.5833 12H20.3038C20.1016 10.5865 18.886 9.5 17.4167 9.5C15.9473 9.5 14.7317 10.5865 14.5295 12H2.41667C2.18655 12 2 12.1865 2 12.4167C2 12.6468 2.18655 12.8333 2.41667 12.8333H14.5295C14.7317 14.2468 15.9473 15.3333 17.4167 15.3333ZM17.4167 14.5C18.5673 14.5 19.5 13.5673 19.5 12.4167V12.4155C19.4994 11.2654 18.5669 10.3333 17.4167 10.3333C16.2661 10.3333 15.3333 11.2661 15.3333 12.4167C15.3333 13.5673 16.2661 14.5 17.4167 14.5ZM11.9705 19.5C11.7683 20.9135 10.5527 22 9.08333 22C7.61397 22 6.39838 20.9135 6.1962 19.5H2.41667C2.18655 19.5 2 19.3135 2 19.0833C2 18.8532 2.18655 18.6667 2.41667 18.6667H6.1962C6.39838 17.2532 7.61397 16.1667 9.08333 16.1667C10.5527 16.1667 11.7683 17.2532 11.9705 18.6667H21.5833C21.8135 18.6667 22 18.8532 22 19.0833C22 19.3135 21.8135 19.5 21.5833 19.5H11.9705ZM11.1667 19.0833C11.1667 20.2339 10.2339 21.1667 9.08333 21.1667C7.93274 21.1667 7 20.2339 7 19.0833C7 17.9327 7.93274 17 9.08333 17C10.2335 17 11.1659 17.932 11.1667 19.0819C11.1667 19.0824 11.1667 19.0829 11.1667 19.0833Z" fill="#C4C4C4"/>
</svg>
