<svg xmlns="http://www.w3.org/2000/svg" width="25" height="25" viewBox="0 0 25 25">
  <g fill="none" fill-rule="evenodd" transform="translate(.5)">
    <rect width="24" height="24"/>
    <circle cx="15.5" cy="19" r="5" stroke="#4BB742"/>
    <circle cx="6.5" cy="4.5" r="1" fill="#4BB742"/>
    <circle cx="8.833" cy="4.5" r="1" fill="#4BB742"/>
    <circle cx="11.167" cy="4.5" r="1" fill="#4BB742"/>
    <circle cx="13.5" cy="4.5" r="1" fill="#4BB742"/>
    <circle cx="6.5" cy="6.5" r="1" fill="#4BB742"/>
    <circle cx="8.833" cy="6.5" r="1" fill="#4BB742"/>
    <circle cx="11.167" cy="6.5" r="1" fill="#4BB742"/>
    <circle cx="13.5" cy="6.5" r="1" fill="#4BB742"/>
    <circle cx="6.5" cy="8.5" r="1" fill="#4BB742"/>
    <circle cx="8.833" cy="8.5" r="1" fill="#4BB742"/>
    <circle cx="11.167" cy="8.5" r="1" fill="#4BB742"/>
    <circle cx="13.5" cy="8.5" r="1" fill="#4BB742"/>
    <circle cx="6.5" cy="10.5" r="1" fill="#4BB742"/>
    <circle cx="8.833" cy="10.5" r="1" fill="#4BB742"/>
    <circle cx="11.167" cy="10.5" r="1" fill="#4BB742"/>
    <circle cx="13.5" cy="10.5" r="1" fill="#4BB742"/>
    <circle cx="6.5" cy="12.5" r="1" fill="#4BB742"/>
    <circle cx="8.833" cy="12.5" r="1" fill="#4BB742"/>
    <circle cx="11.167" cy="12.5" r="1" fill="#4BB742"/>
    <circle cx="13.5" cy="12.5" r="1" fill="#4BB742"/>
    <line x1="9" x2="11" y1="2" y2="2" stroke="#4BB742" stroke-linecap="round"/>
    <path stroke="#4BB742" stroke-linecap="round" d="M16,14 L16,2.5 C16,1.3954305 15.1045695,0.5 14,0.5 L6,0.5 C4.8954305,0.5 4,1.3954305 4,2.5 L4,18.5 C4,19.6045695 4.8954305,20.5 6,20.5 L10.5,20.5 L10.5,20.5"/>
    <g stroke="#4BB742" transform="translate(13 16)">
      <path stroke-linecap="round" d="M1,2 L1,1.5 C1,0.671572875 1.67157288,1.52179594e-16 2.5,0 C3.32842712,-1.52179594e-16 4,0.671572875 4,1.5 L4,2 L4,2"/>
      <rect width="4" height="3" x=".5" y="2.5" rx="1"/>
    </g>
  </g>
</svg>
