<svg xmlns="http://www.w3.org/2000/svg" width="26" height="26" viewBox="0 0 26 26">
  <g fill="none" fill-rule="evenodd" transform="translate(1 1)">
    <rect width="24" height="24"/>
    <path stroke="#4BB742" stroke-linecap="round" d="M22.1485714,18.2742857 C23.3828571,16.7580952 24,14.6666667 24,12 C24,5 19,0 12,0 C5,0 0,5 0,12 C0,19 5,24 12,24 C18.175148,24 21.3666202,19.0907698 17.4312356,15.3915842 C17.1621722,15.1386698 16.7129219,14.8042581 16.0834847,14.388349 C15.7184373,14.1471458 15.2389707,14.1712642 14.8999747,14.4478872 L13.7890528,15.3544069 C13.4374173,15.6413802 12.9366143,15.6555261 12.5693238,15.3888823 C11.6321697,14.7085316 10.8511049,13.9575579 10.2261295,13.1359611 C9.59581669,12.3073479 9.10112137,11.376468 8.74204353,10.3433215 C8.60636115,9.95297075 8.72478046,9.51937139 9.04003541,9.25216788 L9.99583365,8.44205327 C10.3292694,8.15944013 10.4405227,7.69301861 10.270549,7.29032953 L9.27542858,4.93276408 C9.08605267,4.48419995 8.60113788,4.23720585 8.12696736,4.34781927 C7.46185437,4.50297532 6.92735654,4.74642177 6.52347387,5.07815861 C5.99682854,5.51072895 5.63728944,6.13857766 5.44485656,6.96170474 L5.44485297,6.9617039 C5.4198134,7.06881008 5.41261607,7.17931359 5.42355094,7.28876286 C5.73082274,10.3643076 6.58582957,12.9404343 7.98857143,15.0171429 C9.41529696,17.1293584 11.3209008,18.6266159 13.7053829,19.5089155 L13.7053829,19.5089155 C14.6017977,19.8293663 15.1876225,19.9422762 15.4628571,19.8476454 C15.7380918,19.7530146 16.1440919,19.5515995 16.6808573,19.2434002"/>
  </g>
</svg>
