<svg xmlns="http://www.w3.org/2000/svg" width="22" height="23" viewBox="0 0 22 23">
  <g fill="none" fill-rule="evenodd" transform="translate(-1)">
    <rect width="24" height="24"/>
    <g stroke="#4BB742" transform="translate(2 .896)">
      <path d="M9.92113749,17.1790456 L9.32926829,16.3719512 L9.32926829,16.3719512 C8.86178862,15.7621951 8.32317073,15.0406504 7.71341463,14.2073171 C7.10365854,13.3739837 6.49390244,12.5304878 5.88414634,11.6768293 C5.25406504,10.8028455 4.78658537,10.1219512 4.48170732,9.63414634 C4.17682927,9.16666667 3.96341463,8.65853659 3.84146341,8.1097561 C3.7195122,7.56097561 3.65853659,7.01219512 3.65853659,6.46341463 C3.65853659,5.56910569 3.82113821,4.73577236 4.14634146,3.96341463 C4.49186992,3.17073171 4.94918699,2.4796748 5.51829268,1.8902439 C6.08739837,1.30081301 6.75813008,0.843495935 7.5304878,0.518292683 C8.30284553,0.172764228 9.12601626,0 10,0 C10.8739837,0 11.6971545,0.162601626 12.4695122,0.487804878 C13.2418699,0.833333333 13.9126016,1.30081301 14.4817073,1.8902439 C15.050813,2.4796748 15.4979675,3.16056911 15.8231707,3.93292683 C16.1686992,4.72560976 16.3414634,5.56910569 16.3414634,6.46341463 C16.3414634,7.01219512 16.2804878,7.56097561 16.1585366,8.1097561 C16.0365854,8.65853659 15.8333333,9.16666667 15.5487805,9.63414634 C15.2235772,10.1219512 14.7560976,10.7926829 14.1463415,11.6463415 C13.5162602,12.5203252 12.8963415,13.3739837 12.2865854,14.2073171 C11.6768293,15.0406504 11.148374,15.7621951 10.7012195,16.3719512 L10.0811386,17.1807524 C10.0475359,17.224582 9.98476451,17.2328726 9.94093484,17.1992699 C9.93341032,17.1935011 9.92674446,17.1866915 9.92113749,17.1790456 Z"/>
      <path d="M10,8.96341463 C10.7317073,8.96341463 11.351626,8.70934959 11.8597561,8.20121951 C12.3678862,7.69308943 12.6219512,7.07317073 12.6219512,6.34146341 C12.6219512,5.6097561 12.3678862,4.9898374 11.8597561,4.48170732 C11.351626,3.97357724 10.7317073,3.7195122 10,3.7195122 C9.26829268,3.7195122 8.64837398,3.97357724 8.1402439,4.48170732 C7.63211382,4.9898374 7.37804878,5.6097561 7.37804878,6.34146341 C7.37804878,7.07317073 7.63211382,7.69308943 8.1402439,8.20121951 C8.64837398,8.70934959 9.26829268,8.96341463 10,8.96341463 Z"/>
      <polyline stroke-linecap="round" stroke-linejoin="round" points="15 13.645 17.143 13.645 20 21.503 0 21.503 2.857 13.645 5 13.645"/>
    </g>
  </g>
</svg>
