<svg xmlns="http://www.w3.org/2000/svg" width="26" height="24" viewBox="0 0 26 24">
  <g fill="none" fill-rule="evenodd" transform="translate(1)">
    <rect width="24" height="24"/>
    <path stroke="#4BB742" stroke-linecap="round" stroke-width=".8" d="M19.7508643 15.7C22.5836301 16.2868819 24.000013 17.2508874 24.000013 18.5920163 24.000013 20.3090046 21.4138517 21.4635302 16.2415292 22.0555933M4.27502912 15.7C1.42500971 16.4035261 0 17.3451445 0 18.5248554 0 20.6049535 4.0092426 21.7818661 12.0277278 22.0555933"/>
    <path fill="#4BB742" d="M12.6664231,20.7496151 L14.2927196,23.18906 C14.3539901,23.2809657 14.3291554,23.4051396 14.2372496,23.4664101 C14.2043961,23.4883124 14.1657946,23.5 14.1263096,23.5 L10.8737164,23.5 C10.7632595,23.5 10.6737164,23.4104569 10.6737164,23.3 C10.6737164,23.260515 10.685404,23.2219135 10.7073064,23.18906 L12.3336029,20.7496151 C12.3948734,20.6577094 12.5190473,20.6328746 12.610953,20.6941451 C12.6329235,20.708792 12.6517761,20.7276446 12.6664231,20.7496151 Z" transform="rotate(90 12.5 22)"/>
    <rect width="12" height="5" x="6" y=".5" stroke="#4BB742" rx="1"/>
    <rect width="12" height="5" x="6" y="8.5" stroke="#4BB742" rx="1"/>
    <path stroke="#4BB742" stroke-linecap="round" d="M6.000013,18.5 L6.000013,17 C6.000013,16.4477153 6.44772825,16 7.000013,16 L17.000013,16 C17.5522977,16 18.000013,16.4477153 18.000013,17 L18.000013,18.5 L18.000013,18.5"/>
  </g>
</svg>
